#!OML:ASF E:\Style4\Style4.ASF
:FULLY-SPECIFIED
:DEGREES
2330
root 0.443905 17.133 -2.73371 12.4424 1.7972 6.35568
lowerback 22.3117 2.69559 3.15391
upperback 13.0297 4.08691 3.88859
thorax 1.75807 2.07976 1.56232
lowerneck 4.50409 -16.5597 -7.26317
upperneck 26.5212 -23.0215 5.01937
head 9.13934 -10.8433 1.18627
rclavicle 1.59028e-015 2.8625e-014
rhumerus 69.2387 17.5289 -1126.66
rradius 31.9949
rwrist 1075.69
rhand 36.6067 6.21006
rfingers 7.12502
rthumb 59.5277 -8.05663
lclavicle 1.59028e-015 2.8625e-014
lhumerus 65.1677 19.0995 23.6718
lradius 121.884
lwrist 45.5639
lhand -10.2881 26.8308
lfingers 7.12502
lthumb 15.7062 56.2134
rfemur -44.7737 -9.12465 12.5252
rtibia 50.5406
rfoot -15.8165 -15.5731
rtoes -11.4907
lfemur -41.5903 2.52184 -28.288
ltibia 43.7667
lfoot -14.722 6.11109
ltoes -9.72786
2331
root 0.456943 17.147 -2.72717 12.5113 1.52027 6.32624
lowerback 22.3188 2.74713 3.30836
upperback 12.9408 4.18041 3.86875
thorax 1.66849 2.13285 1.43157
lowerneck 4.38306 -16.6586 -7.00816
upperneck 26.4965 -23.1639 5.02365
head 9.13017 -10.8852 1.13266
rclavicle -2.22639e-014 1.59028e-014
rhumerus 68.9078 17.2678 -1127.16
rradius 32.7717
rwrist 1073.25
rhand 36.3073 6.14044
rfingers 7.12502
rthumb 59.2701 -8.38392
lclavicle -2.22639e-014 1.59028e-014
lhumerus 65.6834 19.1592 23.8004
lradius 121.674
lwrist 45.642
lhand -10.4277 26.816
lfingers 7.12502
lthumb 15.5717 56.2092
rfemur -44.7391 -8.96052 12.5032
rtibia 50.2638
rfoot -15.6506 -15.4954
rtoes -11.6403
lfemur -41.5106 2.58437 -28.2989
ltibia 43.5343
lfoot -14.6962 6.23872
ltoes -9.52022
2332
root 0.471985 17.1619 -2.72168 12.5895 1.24369 6.35018
lowerback 22.2812 2.79722 3.42774
upperback 12.8834 4.2624 3.84301
thorax 1.63432 2.17928 1.32021
lowerneck 4.15339 -16.7664 -6.73632
upperneck 26.5953 -23.3068 4.93795
head 9.16971 -10.9243 1.0347
rclavicle -1.43125e-014 -3.81667e-014
rhumerus 68.5863 17.0044 -1128.12
rradius 33.3668
rwrist 1071
rhand 35.7157 5.8315
rfingers 7.12502
rthumb 58.7589 -9.18888
lclavicle -1.43125e-014 -3.81667e-014
lhumerus 66.4308 19.3898 23.9787
lradius 121.295
lwrist 45.8408
lhand -10.1157 26.6775
lfingers 7.12502
lthumb 15.8722 56.0469
rfemur -44.7023 -8.83757 12.4157
rtibia 49.9765
rfoot -15.5862 -15.3133
rtoes -11.3797
lfemur -41.4188 2.63285 -28.3813
ltibia 43.2784
lfoot -14.6282 6.4788
ltoes -10.2187
2333
root 0.48701 17.1763 -2.71627 12.656 0.933725 6.43422
lowerback 22.2135 2.86502 3.48015
upperback 12.8656 4.35152 3.80481
thorax 1.65491 2.22703 1.23513
lowerneck 3.96947 -16.8893 -6.47826
upperneck 26.6186 -23.4784 4.91295
head 9.18578 -10.9772 0.961034
rclavicle -4.6118e-014 -3.81667e-014
rhumerus 68.3503 16.6251 -1128.95
rradius 33.9489
rwrist 1068.49
rhand 35.1716 5.54427
rfingers 7.12502
rthumb 58.2866 -9.91715
lclavicle -4.6118e-014 -3.81667e-014
lhumerus 66.8726 19.4916 24.1809
lradius 121.248
lwrist 45.9265
lhand -9.76229 26.4059
lfingers 7.12502
lthumb 16.2125 55.748
rfemur -44.6685 -8.71185 12.2581
rtibia 49.676
rfoot -15.4456 -15.1787
rtoes -11.3829
lfemur -41.2977 2.69537 -28.5254
ltibia 43.0095
lfoot -14.5947 6.74047
ltoes -10.8148
2334
root 0.502023 17.19 -2.70932 12.7075 0.595412 6.50669
lowerback 22.1645 2.93716 3.56213
upperback 12.8568 4.45117 3.75081
thorax 1.68057 2.28222 1.11445
lowerneck 3.90776 -17.0047 -6.19769
upperneck 26.4322 -23.6577 5.03314
head 9.12225 -11.0335 0.948306
rclavicle 2.8625e-014 9.54166e-015
rhumerus 68.1407 16.1325 -1129.52
rradius 34.6313
rwrist 1065.64
rhand 35.1062 5.3603
rfingers 7.12502
rthumb 58.2296 -10.1532
lclavicle 2.8625e-014 9.54166e-015
lhumerus 66.9982 19.3854 24.402
lradius 121.501
lwrist 45.8326
lhand -9.44239 26.0329
lfingers 7.12502
lthumb 16.5206 55.3496
rfemur -44.6106 -8.51645 12.0763
rtibia 49.3634
rfoot -15.1152 -15.1179
rtoes -12.1765
lfemur -41.1595 2.7836 -28.6608
ltibia 42.7397
lfoot -14.6343 6.90852
ltoes -10.376
2335
root 0.516273 17.2032 -2.70172 12.6729 0.275269 6.5591
lowerback 22.1876 3.01464 3.69088
upperback 12.8632 4.56911 3.71532
thorax 1.69143 2.34829 0.981106
lowerneck 3.76614 -17.1197 -5.90481
upperneck 26.3414 -23.8342 5.10798
head 9.09878 -11.0842 0.909465
rclavicle 6.36111e-015 -1.43125e-014
rhumerus 67.8931 15.5572 -1130.08
rradius 35.2899
rwrist 1062.72
rhand 35.241 5.21518
rfingers 7.12502
rthumb 58.3469 -10.1908
lclavicle 6.36111e-015 -1.43125e-014
lhumerus 67.0475 19.0964 24.6051
lradius 121.867
lwrist 45.5854
lhand -9.4055 26.0477
lfingers 7.12502
lthumb 16.5561 55.3615
rfemur -44.4437 -8.32354 11.9048
rtibia 49.0526
rfoot -14.8243 -14.9807
rtoes -12.8131
lfemur -40.9273 2.90019 -28.7742
ltibia 42.4882
lfoot -14.6575 6.98392
ltoes -9.51677
2336
root 0.531561 17.2169 -2.69627 12.6996 -0.0105302 6.54093
lowerback 22.1368 3.07794 3.86902
upperback 12.859 4.67498 3.71803
thorax 1.72849 2.40971 0.867177
lowerneck 3.50953 -17.2506 -5.64983
upperneck 26.4435 -24.0178 5.04784
head 9.15106 -11.1393 0.814448
rclavicle 7.15625e-014 1.59028e-015
rhumerus 67.6066 15.0482 -1130.85
rradius 35.8913
rwrist 1059.97
rhand 35.1324 5.03541
rfingers 7.12502
rthumb 58.2525 -10.4573
lclavicle 7.15625e-014 1.59028e-015
lhumerus 67.0334 18.7144 24.7557
lradius 122.315
lwrist 45.2628
lhand -9.81329 26.5577
lfingers 7.12502
lthumb 16.1634 55.9037
rfemur -44.3679 -8.21634 11.8811
rtibia 48.754
rfoot -14.8729 -14.743
rtoes -11.7963
lfemur -40.7951 2.97732 -28.8027
ltibia 42.2614
lfoot -14.6614 7.1641
ltoes -9.51397
2337
root 0.548188 17.2305 -2.69158 12.7643 -0.293028 6.45973
lowerback 22.0295 3.11991 4.04821
upperback 12.8712 4.74992 3.75112
thorax 1.80936 2.45518 0.795517
lowerneck 3.32584 -17.3821 -5.34597
upperneck 26.4091 -24.1829 4.94613
head 9.12782 -11.1944 0.716569
rclavicle 3.18055e-015 -1.90833e-014
rhumerus 67.3396 14.6384 -1132.02
rradius 36.382
rwrist 1057.79
rhand 34.8712 5.05647
rfingers 7.12502
rthumb 58.0249 -10.6426
lclavicle 3.18055e-015 -1.90833e-014
lhumerus 67.6839 18.954 24.9849
lradius 122.116
lwrist 45.4269
lhand -10.0972 26.7077
lfingers 7.12502
lthumb 15.8901 56.0758
rfemur -44.3365 -8.09297 11.9283
rtibia 48.4583
rfoot -14.8786 -14.5442
rtoes -10.8374
lfemur -40.7332 3.0623 -28.7665
ltibia 42.0593
lfoot -14.6997 7.36296
ltoes -9.93392
2338
root 0.565359 17.2454 -2.68427 12.8479 -0.627096 6.38083
lowerback 21.9227 3.17543 4.22637
upperback 12.8548 4.84222 3.75869
thorax 1.86094 2.5095 0.692768
lowerneck 3.21161 -17.481 -5.00982
upperneck 26.3614 -24.3205 4.91687
head 9.09164 -11.2314 0.647878
rclavicle -1.59028e-015 -1.74931e-014
rhumerus 67.0141 14.1973 -1133.21
rradius 36.8929
rwrist 1055.63
rhand 34.5208 5.12281
rfingers 7.12502
rthumb 57.7189 -10.8481
lclavicle -1.59028e-015 -1.74931e-014
lhumerus 68.1686 19.0001 25.1681
lradius 121.993
lwrist 45.555
lhand -9.94217 26.3829
lfingers 7.12502
lthumb 16.0393 55.739
rfemur -44.3299 -7.9341 11.9566
rtibia 48.1624
rfoot -14.7291 -14.4152
rtoes -11.1838
lfemur -40.6915 3.20486 -28.7574
ltibia 41.8741
lfoot -14.6812 7.47377
ltoes -9.74927
2339
root 0.582772 17.2577 -2.67652 12.9344 -1.00341 6.36672
lowerback 21.8485 3.25028 4.32677
upperback 12.8039 4.94893 3.74502
thorax 1.85352 2.5664 0.604077
lowerneck 3.23014 -17.5643 -4.66753
upperneck 26.1966 -24.4331 4.92367
head 8.99339 -11.2637 0.610767
rclavicle -6.36111e-014 -1.43125e-014
rhumerus 66.633 13.7272 -1134.34
rradius 37.4162
rwrist 1053.3
rhand 34.1451 5.11361
rfingers 7.12502
rthumb 57.39 -11.1428
lclavicle -6.36111e-014 -1.43125e-014
lhumerus 68.5087 18.8838 25.3413
lradius 121.965
lwrist 45.6236
lhand -9.71291 26.2516
lfingers 7.12502
lthumb 16.2601 55.5898
rfemur -44.3467 -7.74959 11.9013
rtibia 47.8749
rfoot -14.5888 -14.2609
rtoes -11.2847
lfemur -40.6566 3.36354 -28.8317
ltibia 41.6979
lfoot -14.6668 7.63296
ltoes -9.76084
2340
root 0.599097 17.268 -2.67219 12.9817 -1.36649 6.36507
lowerback 21.8658 3.32725 4.46395
upperback 12.7387 5.07059 3.71395
thorax 1.7915 2.63234 0.46755
lowerneck 3.20477 -17.6762 -4.35514
upperneck 26.1224 -24.5814 4.88603
head 8.93507 -11.3127 0.552272
rclavicle -9.54166e-015 -5.24792e-014
rhumerus 66.215 13.2366 -1135.44
rradius 37.936
rwrist 1050.88
rhand 33.7624 5.1662
rfingers 7.12502
rthumb 57.054 -11.3747
lclavicle -9.54166e-015 -5.24792e-014
lhumerus 68.8699 18.6966 25.4784
lradius 121.971
lwrist 45.5471
lhand -9.767 26.3283
lfingers 7.12502
lthumb 16.208 55.6707
rfemur -44.3478 -7.55165 11.8304
rtibia 47.5991
rfoot -14.3462 -14.1679
rtoes -11.4286
lfemur -40.6074 3.54346 -28.9142
ltibia 41.5208
lfoot -14.7023 7.83693
ltoes -9.94024
2341
root 0.61341 17.2783 -2.6699 12.9777 -1.72995 6.39384
lowerback 21.8536 3.2777 4.1472
upperback 12.6542 4.95629 3.91549
thorax 1.65129 2.54566 0.873559
lowerneck 3.4513 -17.5497 -4.83995
upperneck 26.1742 -24.3945 4.82811
head 8.95481 -11.2751 0.628509
rclavicle -7.95139e-015 3.81667e-014
rhumerus 66.1157 13.497 -1136.12
rradius 38.5225
rwrist 1048.29
rhand 33.4457 5.19256
rfingers 7.12502
rthumb 56.7753 -11.5791
lclavicle -7.95139e-015 3.81667e-014
lhumerus 68.4136 18.7405 25.5595
lradius 121.99
lwrist 45.5681
lhand -9.67279 26.3002
lfingers 7.12502
lthumb 16.2987 55.6352
rfemur -44.3091 -7.37868 11.7373
rtibia 47.3389
rfoot -14.1358 -14.0603
rtoes -11.7735
lfemur -40.5076 3.70592 -29.0067
ltibia 41.3561
lfoot -14.759 7.96774
ltoes -9.5355
2342
root 0.630413 17.29 -2.66394 12.9796 -2.1067 6.40009
lowerback 21.7968 3.25083 3.85921
upperback 12.5853 4.87267 4.11641
thorax 1.55622 2.47741 1.26163
lowerneck 3.65571 -17.4656 -5.09358
upperneck 26.2052 -24.2396 4.63534
head 8.92755 -11.2442 0.633816
rclavicle -2.06736e-014 9.54166e-015
rhumerus 66.0463 13.6208 -1136.86
rradius 38.9361
rwrist 1045.91
rhand 32.7869 5.01214
rfingers 7.12502
rthumb 56.1935 -12.2265
lclavicle -2.06736e-014 9.54166e-015
lhumerus 67.9641 18.736 25.6224
lradius 122.056
lwrist 45.6632
lhand -9.61316 25.8741
lfingers 7.12502
lthumb 16.3561 55.2045
rfemur -44.2694 -7.25748 11.6764
rtibia 47.0934
rfoot -13.984 -13.8622
rtoes -12.1618
lfemur -40.4009 3.85835 -29.084
ltibia 41.2094
lfoot -14.761 8.17276
ltoes -10.1918
